<svg width="46" height="16" viewBox="0 0 46 16" fill="none" xmlns="http://www.w3.org/2000/svg">
<path d="M17.471 1.16752L11.7424 15.2705H7.95988L5.05181 4.01586C4.87521 3.32265 4.72336 3.06869 4.19514 2.77663C3.33298 2.30069 1.91049 1.85462 0.659512 1.57762L0.742386 1.16776L6.83115 1.16776C7.60727 1.16776 8.30754 1.69449 8.4882 2.60568L10.0349 10.7662L13.7119 1.16752L17.471 1.16752ZM32.3383 10.6658C32.3354 6.94368 27.2708 6.73863 27.2975 5.0759C27.3059 4.56987 27.7758 4.03185 28.8096 3.89452C29.322 3.8261 30.7344 3.77389 32.3404 4.52566L32.9543 1.53506C32.0917 1.21667 30.9824 0.910034 29.6041 0.910034C26.0672 0.910034 23.5875 2.82695 23.5799 5.57183C23.567 7.60209 25.372 8.73503 26.731 9.40967C28.1291 10.1005 28.5992 10.5445 28.5969 11.1625C28.5917 12.1085 27.4912 12.5261 26.461 12.5425C24.6626 12.5708 23.6164 12.0464 22.7825 11.652L22.149 14.7416C22.987 15.1327 24.5319 15.4739 26.132 15.491C29.8913 15.4908 32.3411 13.5979 32.3383 10.6658ZM41.7005 15.2705H45.01L42.0523 1.16752L38.9976 1.16752C38.3108 1.16752 37.7334 1.57527 37.48 2.20217L32.174 15.2705H35.9314L36.6673 13.1638L41.2582 13.1638L41.7005 15.2705ZM37.6834 10.2734L39.541 4.97832L40.6509 10.2734H37.6834ZM22.5839 1.16752L19.6939 15.2705H16.1157L19.0068 1.16752L22.5839 1.16752Z" fill="white"/>
</svg>
