<svg width="34" height="34" viewBox="0 0 34 34" fill="none" xmlns="http://www.w3.org/2000/svg">
<path d="M26.383 10.8852C26.1565 10.6651 25.8388 10.5651 25.5279 10.6163C25.2164 10.6672 24.9473 10.8628 24.8028 11.1434C24.3059 12.1089 23.6746 12.9961 22.9319 13.7805C23.006 13.2139 23.0432 12.6439 23.0432 12.0724C23.0432 10.9759 22.8963 9.84742 22.6063 8.71805C21.6528 5.00853 19.1526 1.87144 15.747 0.111205C15.4505 -0.0419942 15.0972 -0.0366153 14.8054 0.125549C14.5137 0.287779 14.3227 0.585213 14.2965 0.917908C14.031 4.28895 12.2946 7.35586 9.52993 9.33424C9.49334 9.3606 9.45702 9.38729 9.4207 9.41386C9.34546 9.46891 9.27454 9.52097 9.20826 9.56467C9.1979 9.57157 9.18761 9.57861 9.17752 9.58585C7.43874 10.8308 6.00403 12.4903 5.02832 14.3854C4.03688 16.3131 3.53418 18.3818 3.53418 20.5336C3.53418 21.6299 3.68114 22.7583 3.971 23.8879C5.50067 29.8417 10.8586 33.9999 17.0005 33.9999C24.4255 33.9999 30.466 27.9589 30.466 20.5336C30.466 16.872 29.016 13.4454 26.383 10.8852Z" fill="#FF5555"/>
<circle cx="16" cy="20" r="4" fill="white"/>
</svg>
