<svg width="67" height="30" viewBox="0 0 67 30" fill="none" xmlns="http://www.w3.org/2000/svg">
<path d="M6.58611 23.1301C7.62204 23.1301 8.53845 22.9408 9.33532 22.5623C10.1322 22.1639 10.7398 21.5662 11.1582 20.7693V22.7715H15.3417V6.45552H10.8593V15.9881C10.8593 16.9244 10.5804 17.6815 10.0226 18.2592C9.46481 18.817 8.74763 19.0959 7.87107 19.0959C6.99451 19.0959 6.27732 18.817 5.71951 18.2592C5.1617 17.6815 4.8828 16.9244 4.8828 15.9881V6.45552H0.400391V16.3467C0.400391 18.3787 0.928318 20.0223 1.98417 21.2773C3.05995 22.5125 4.59393 23.1301 6.58611 23.1301Z" fill="black"/>
<path d="M18.6179 4.99127H23.1003V0.50886H18.6179V4.99127ZM18.6179 22.7715H23.1003V6.45552H18.6179V22.7715Z" fill="black"/>
<path d="M28.3526 22.7715H32.835V10.3403H36.3313V6.45552H32.835V6.21646C32.835 4.76217 33.6817 4.03502 35.3751 4.03502C35.654 4.03502 35.9827 4.0649 36.3612 4.12467V0.299682C35.903 0.200073 35.3751 0.150269 34.7774 0.150269C32.7454 0.150269 31.1616 0.678196 30.0261 1.73405C28.9104 2.78991 28.3526 4.28404 28.3526 6.21646V6.45552H25.6034V10.3403H28.3526V22.7715Z" fill="black"/>
<path d="M38.6369 22.7715H43.1194V13.986C43.1194 12.7707 43.458 11.8344 44.1354 11.177C44.8127 10.4996 45.6992 10.161 46.7949 10.161H48.1994V6.27622H47.2432C46.2471 6.27622 45.3606 6.46548 44.5836 6.84399C43.8266 7.20259 43.2389 7.88989 42.8205 8.9059V6.45552H38.6369V22.7715Z" fill="black"/>
<path d="M52.704 29.4054C55.6923 29.4054 57.8538 27.7021 59.1885 24.2955L66.1811 6.45552H61.37L57.5151 16.9443L53.6602 6.45552H48.8491L55.2739 22.7715L54.9751 23.4588C54.736 23.9967 54.4272 24.4748 54.0487 24.8932C53.6702 25.3115 53.0427 25.5207 52.1661 25.5207C51.4489 25.5207 50.7716 25.4211 50.1341 25.2219V28.8974C50.4728 29.0767 50.8612 29.2062 51.2995 29.2859C51.7577 29.3656 52.2259 29.4054 52.704 29.4054Z" fill="black"/>
</svg>
